<svg width="46" height="46" viewBox="0 0 46 46" fill="none" xmlns="http://www.w3.org/2000/svg">
<rect width="46" height="46" rx="8" fill="#081C85"/>
<path d="M29.3928 5.5H26.3789V10.6575H29.3928V5.5Z" fill="white"/>
<path d="M17.5996 5.5L22.7351 10.6575L24.8692 8.51581L21.8615 5.5H17.5996Z" fill="white"/>
<path d="M20.6445 12.7679L22.7474 10.6575L27.8829 15.8212H23.6772L20.6445 12.7679Z" fill="white"/>
<path d="M34.2793 16.3457L37.911 12.6992L40.0388 14.8346L36.4071 18.4873L34.2793 16.3457Z" fill="white"/>
<path d="M31.7012 6.46167L34.7151 9.48996V13.7545H31.7012V6.46167Z" fill="white"/>
<path d="M28.7305 13.7607H31.7069V21.0661L28.7305 18.0753V13.7607Z" fill="white"/>
<path d="M40.9929 25.9739H35.8574V29.0022H40.9929V25.9739Z" fill="white"/>
<path d="M40.9988 17.1575V21.4345L37.9911 24.4566L35.8633 22.3149L40.9988 17.1575Z" fill="white"/>
<path d="M33.7553 20.2107L35.8582 22.3211L30.7227 27.4848V23.2577L33.7553 20.2107Z" fill="white"/>
<path d="M30.1981 33.9036L33.8298 37.55L31.702 39.6917L28.0703 36.0452L30.1981 33.9036Z" fill="white"/>
<path d="M40.0387 31.3186L37.0248 34.3469H32.7754V31.3186H40.0387Z" fill="white"/>
<path d="M32.7696 28.3401V31.3247H25.5L28.4765 28.3401H32.7696Z" fill="white"/>
<path d="M20.6135 35.4956H17.5996V40.6531H20.6135V35.4956Z" fill="white"/>
<path d="M29.3926 40.6531H25.1307L22.123 37.6373L24.2571 35.4956L29.3926 40.6531Z" fill="white"/>
<path d="M26.3477 33.3853L24.2449 35.4957L19.1094 30.332H23.3151L26.3477 33.3853Z" fill="white"/>
<path d="M12.7126 29.8138L9.08096 33.4602L6.95312 31.3186L10.5848 27.6721L12.7126 29.8138Z" fill="white"/>
<path d="M15.2912 39.6916L12.2773 36.6633V32.3987H15.2912V39.6916Z" fill="white"/>
<path d="M18.2616 32.3925H15.2852V25.0872L18.2616 28.078V32.3925Z" fill="white"/>
<path d="M11.1355 17.1575H6V20.1858H11.1355V17.1575Z" fill="white"/>
<path d="M6 28.9958V24.7187L9.00143 21.7029L11.1355 23.8383L6 28.9958Z" fill="white"/>
<path d="M13.2376 25.9426L11.1348 23.8322L16.2703 18.6685V22.8956L13.2376 25.9426Z" fill="white"/>
<path d="M16.7938 12.2498L13.1621 8.60333L15.2899 6.46167L18.9216 10.1081L16.7938 12.2498Z" fill="white"/>
<path d="M6.95312 14.8347L9.96703 11.8064H14.2165V14.8347H6.95312Z" fill="white"/>
<path d="M14.2227 17.8192V14.8284H21.4922L18.5158 17.8192H14.2227Z" fill="white"/>
</svg>
