<svg id="Layer_1" data-name="Layer 1" xmlns="http://www.w3.org/2000/svg" xmlns:xlink="http://www.w3.org/1999/xlink" viewBox="0 0 1920 1082"><defs><style>.cls-1{fill:none;}.cls-2{fill:#081b82;}.cls-3{opacity:0.05;}.cls-4{clip-path:url(#clip-path);}.cls-5{opacity:0.18;}.cls-6{fill:#2b52cd;}.cls-7{clip-path:url(#clip-path-2);}.cls-8{clip-path:url(#clip-path-3);}.cls-9{opacity:0.57;}.cls-10{opacity:0.44;}.cls-11{clip-path:url(#clip-path-4);}.cls-12{opacity:0.66;}.cls-13{fill:#3354c6;}</style><clipPath id="clip-path"><rect class="cls-1" x="-1943.5" width="1919" height="1079"/></clipPath><clipPath id="clip-path-2"><rect class="cls-1" x="4.69" y="-1024.64" width="1912.63" height="987.11"/></clipPath><clipPath id="clip-path-3"><rect class="cls-2" x="-22.27" y="-8.52" width="1958.43" height="1097.03"/></clipPath><clipPath id="clip-path-4"><rect class="cls-1" x="-3.06" width="1920" height="1080"/></clipPath></defs><g class="cls-4"><g class="cls-5"><polygon class="cls-6" points="-972.85 559.22 341.32 560.8 413.92 488.21 -152.69 -78.41 -335.01 -78.62 -972.85 559.22"/></g></g><g class="cls-3"><g class="cls-7"><polygon points="-610.58 437.56 6.89 1058.07 1516 -458.41 281.03 -458.41 -610.58 437.56"/></g></g><rect class="cls-2" x="-22.27" y="-8.52" width="1958.43" height="1097.03"/><rect class="cls-2" x="-22.27" y="-8.52" width="1958.43" height="1097.03"/><g class="cls-8"><g class="cls-9"><rect class="cls-2" x="-107.36" y="-178.66" width="2077.94" height="1858.56"/></g></g><g class="cls-10"><g class="cls-11"><g class="cls-12"><polygon class="cls-13" points="163.71 44.48 123.42 84.87 24.94 -13.84 105.53 -13.84 163.71 44.48"/><polygon class="cls-13" points="458.61 44.48 418.32 84.87 319.85 -13.84 400.43 -13.84 458.61 44.48"/><polygon class="cls-13" points="753.52 44.48 713.23 84.87 614.76 -13.84 695.34 -13.84 753.52 44.48"/><polygon class="cls-13" points="1048.43 44.48 1008.14 84.87 909.66 -13.84 990.25 -13.84 1048.43 44.48"/><polygon class="cls-13" points="1343.34 44.48 1303.05 84.87 1204.57 -13.84 1285.16 -13.84 1343.34 44.48"/><polygon class="cls-13" points="1638.25 44.48 1597.95 84.87 1499.48 -13.84 1580.06 -13.84 1638.25 44.48"/><polygon class="cls-13" points="1933.15 44.48 1892.86 84.87 1794.39 -13.84 1874.97 -13.84 1933.15 44.48"/><polygon class="cls-13" points="163.71 258.74 123.42 299.13 24.94 200.42 105.53 200.42 163.71 258.74"/><polygon class="cls-13" points="24.94 200.42 -56.73 200.42 -114.27 142.73 -73.44 101.79 24.94 200.42"/><polygon class="cls-13" points="458.61 258.74 418.32 299.13 319.85 200.42 400.43 200.42 458.61 258.74"/><polygon class="cls-13" points="319.85 200.42 238.18 200.42 180.63 142.73 221.47 101.79 319.85 200.42"/><polygon class="cls-13" points="753.52 258.74 713.23 299.13 614.76 200.42 695.34 200.42 753.52 258.74"/><polygon class="cls-13" points="614.76 200.42 533.09 200.42 475.54 142.73 516.38 101.79 614.76 200.42"/><polygon class="cls-13" points="1048.43 258.74 1008.14 299.13 909.66 200.42 990.25 200.42 1048.43 258.74"/><polygon class="cls-13" points="909.67 200.42 828 200.42 770.45 142.73 811.28 101.79 909.67 200.42"/><polygon class="cls-13" points="1343.34 258.74 1303.05 299.13 1204.57 200.42 1285.16 200.42 1343.34 258.74"/><polygon class="cls-13" points="1204.57 200.42 1122.91 200.42 1065.36 142.73 1106.19 101.79 1204.57 200.42"/><polygon class="cls-13" points="1638.25 258.74 1597.95 299.13 1499.48 200.42 1580.06 200.42 1638.25 258.74"/><polygon class="cls-13" points="1499.48 200.42 1417.81 200.42 1360.27 142.73 1401.1 101.79 1499.48 200.42"/><polygon class="cls-13" points="1933.15 258.74 1892.86 299.13 1794.39 200.42 1874.97 200.42 1933.15 258.74"/><polygon class="cls-13" points="1794.39 200.42 1712.72 200.42 1655.17 142.73 1696.01 101.79 1794.39 200.42"/><polygon class="cls-13" points="163.71 473 123.42 513.39 24.94 414.68 105.53 414.68 163.71 473"/><polygon class="cls-13" points="24.94 414.68 -56.73 414.68 -114.27 356.99 -73.44 316.05 24.94 414.68"/><polygon class="cls-13" points="458.61 473 418.32 513.39 319.85 414.68 400.43 414.68 458.61 473"/><polygon class="cls-13" points="319.85 414.68 238.18 414.68 180.63 356.99 221.47 316.05 319.85 414.68"/><polygon class="cls-13" points="753.52 473 713.23 513.39 614.76 414.68 695.34 414.68 753.52 473"/><polygon class="cls-13" points="614.76 414.68 533.09 414.68 475.54 356.99 516.38 316.05 614.76 414.68"/><polygon class="cls-13" points="1048.43 473 1008.14 513.39 909.66 414.68 990.25 414.68 1048.43 473"/><polygon class="cls-13" points="909.67 414.68 828 414.68 770.45 356.99 811.28 316.05 909.67 414.68"/><polygon class="cls-13" points="1343.34 473 1303.05 513.39 1204.57 414.68 1285.16 414.68 1343.34 473"/><polygon class="cls-13" points="1204.57 414.68 1122.91 414.68 1065.36 356.99 1106.19 316.05 1204.57 414.68"/><polygon class="cls-13" points="1638.25 473 1597.95 513.39 1499.48 414.68 1580.06 414.68 1638.25 473"/><polygon class="cls-13" points="1499.48 414.68 1417.81 414.68 1360.27 356.99 1401.1 316.05 1499.48 414.68"/><polygon class="cls-13" points="1933.15 473 1892.86 513.39 1794.39 414.68 1874.97 414.68 1933.15 473"/><polygon class="cls-13" points="1794.39 414.68 1712.72 414.68 1655.17 356.99 1696.01 316.05 1794.39 414.68"/><polygon class="cls-13" points="163.71 687.26 123.42 727.65 24.94 628.94 105.53 628.94 163.71 687.26"/><polygon class="cls-13" points="24.94 628.94 -56.73 628.94 -114.27 571.25 -73.44 530.31 24.94 628.94"/><polygon class="cls-13" points="458.61 687.26 418.32 727.65 319.85 628.94 400.43 628.94 458.61 687.26"/><polygon class="cls-13" points="319.85 628.94 238.18 628.94 180.63 571.25 221.47 530.31 319.85 628.94"/><polygon class="cls-13" points="753.52 687.26 713.23 727.65 614.76 628.94 695.34 628.94 753.52 687.26"/><polygon class="cls-13" points="614.76 628.94 533.09 628.94 475.54 571.25 516.38 530.31 614.76 628.94"/><polygon class="cls-13" points="1048.43 687.26 1008.14 727.65 909.66 628.94 990.25 628.94 1048.43 687.26"/><polygon class="cls-13" points="909.67 628.94 828 628.94 770.45 571.25 811.28 530.31 909.67 628.94"/><polygon class="cls-13" points="1343.34 687.26 1303.05 727.65 1204.57 628.94 1285.16 628.94 1343.34 687.26"/><polygon class="cls-13" points="1204.57 628.94 1122.91 628.94 1065.36 571.25 1106.19 530.31 1204.57 628.94"/><polygon class="cls-13" points="1638.25 687.26 1597.95 727.65 1499.48 628.94 1580.06 628.94 1638.25 687.26"/><polygon class="cls-13" points="1499.48 628.94 1417.81 628.94 1360.27 571.25 1401.1 530.31 1499.48 628.94"/><polygon class="cls-13" points="1933.15 687.26 1892.86 727.65 1794.39 628.94 1874.97 628.94 1933.15 687.26"/><polygon class="cls-13" points="1794.39 628.94 1712.72 628.94 1655.17 571.25 1696.01 530.31 1794.39 628.94"/><polygon class="cls-13" points="163.71 901.52 123.42 941.91 24.94 843.2 105.53 843.2 163.71 901.52"/><polygon class="cls-13" points="24.94 843.2 -56.73 843.2 -114.27 785.51 -73.44 744.57 24.94 843.2"/><polygon class="cls-13" points="458.61 901.52 418.32 941.91 319.85 843.2 400.43 843.2 458.61 901.52"/><polygon class="cls-13" points="319.85 843.2 238.18 843.2 180.63 785.51 221.47 744.57 319.85 843.2"/><polygon class="cls-13" points="753.52 901.52 713.23 941.91 614.76 843.2 695.34 843.2 753.52 901.52"/><polygon class="cls-13" points="614.76 843.2 533.09 843.2 475.54 785.51 516.38 744.57 614.76 843.2"/><polygon class="cls-13" points="1048.43 901.52 1008.14 941.91 909.66 843.2 990.25 843.2 1048.43 901.52"/><polygon class="cls-13" points="909.67 843.2 828 843.2 770.45 785.51 811.28 744.57 909.67 843.2"/><polygon class="cls-13" points="1343.34 901.52 1303.05 941.91 1204.57 843.2 1285.16 843.2 1343.34 901.52"/><polygon class="cls-13" points="1204.57 843.2 1122.91 843.2 1065.36 785.51 1106.19 744.57 1204.57 843.2"/><polygon class="cls-13" points="1638.25 901.52 1597.95 941.91 1499.48 843.2 1580.06 843.2 1638.25 901.52"/><polygon class="cls-13" points="1499.48 843.2 1417.81 843.2 1360.27 785.51 1401.1 744.57 1499.48 843.2"/><polygon class="cls-13" points="1933.15 901.52 1892.86 941.91 1794.39 843.2 1874.97 843.2 1933.15 901.52"/><polygon class="cls-13" points="1794.39 843.2 1712.72 843.2 1655.17 785.51 1696.01 744.57 1794.39 843.2"/><polygon class="cls-13" points="163.71 1115.78 123.42 1156.17 24.94 1057.46 105.53 1057.46 163.71 1115.78"/><polygon class="cls-13" points="24.94 1057.46 -56.73 1057.46 -114.27 999.77 -73.44 958.84 24.94 1057.46"/><polygon class="cls-13" points="458.61 1115.78 418.32 1156.17 319.85 1057.46 400.43 1057.46 458.61 1115.78"/><polygon class="cls-13" points="319.85 1057.46 238.18 1057.46 180.63 999.77 221.47 958.84 319.85 1057.46"/><polygon class="cls-13" points="753.52 1115.78 713.23 1156.17 614.76 1057.46 695.34 1057.46 753.52 1115.78"/><polygon class="cls-13" points="614.76 1057.46 533.09 1057.46 475.54 999.77 516.38 958.84 614.76 1057.46"/><polygon class="cls-13" points="1048.43 1115.78 1008.14 1156.17 909.66 1057.46 990.25 1057.46 1048.43 1115.78"/><polygon class="cls-13" points="909.67 1057.46 828 1057.46 770.45 999.77 811.28 958.84 909.67 1057.46"/><polygon class="cls-13" points="1343.34 1115.78 1303.05 1156.17 1204.57 1057.46 1285.16 1057.46 1343.34 1115.78"/><polygon class="cls-13" points="1204.57 1057.46 1122.91 1057.46 1065.36 999.77 1106.19 958.84 1204.57 1057.46"/><polygon class="cls-13" points="1638.25 1115.78 1597.95 1156.17 1499.48 1057.46 1580.06 1057.46 1638.25 1115.78"/><polygon class="cls-13" points="1499.48 1057.46 1417.81 1057.46 1360.27 999.77 1401.1 958.84 1499.48 1057.46"/><polygon class="cls-13" points="1933.15 1115.78 1892.86 1156.17 1794.39 1057.46 1874.97 1057.46 1933.15 1115.78"/><polygon class="cls-13" points="1794.39 1057.46 1712.72 1057.46 1655.17 999.77 1696.01 958.84 1794.39 1057.46"/></g></g></g></svg>