<?xml version="1.0" encoding="UTF-8"?>
<svg id="Layer_2" data-name="Layer 2" xmlns="http://www.w3.org/2000/svg" viewBox="0 0 112.92 103.18">
  <defs>
    <style>
      .cls-1 {
        fill: #fff;
        stroke-width: 0px;
      }
    </style>
  </defs>
  <g id="Layer_1-2" data-name="Layer 1">
    <g>
      <path class="cls-1" d="M13.89,79.71l-3.3-3.67H2.09v3.67H0v-13.83h11.35c2.79,0,5.06,2.28,5.06,5.08,0,2.1-1.3,3.98-3.22,4.73l3.61,4.02h-2.91ZM11.36,73.94c1.64,0,2.97-1.34,2.97-2.98s-1.33-2.98-2.97-2.98H2.09v5.96h9.26Z"/>
      <polygon class="cls-1" points="55.43 79.71 55.43 67.18 48.35 74.28 41.19 67.09 41.19 79.71 39.1 79.71 39.1 65.88 42.94 65.88 48.35 71.31 53.76 65.88 57.52 65.88 57.52 79.71 55.43 79.71"/>
      <polygon class="cls-1" points="67.07 79.71 67.07 67.98 59.94 67.98 59.94 65.88 76.3 65.88 76.3 67.98 69.17 67.98 69.17 79.71 67.07 79.71"/>
      <polygon class="cls-1" points="110.83 65.88 110.83 78.15 98.6 65.88 95.11 65.88 95.11 79.71 97.2 79.71 97.2 67.44 109.43 79.71 112.92 79.71 112.92 65.88 110.83 65.88"/>
      <path class="cls-1" d="M34.18,79.71l-2.44-4.44h-7.58l-2.44,4.44h-2.39l7.59-13.83h2.04l.09.16,7.5,13.67h-2.39ZM30.59,73.17l-2.64-4.81-2.64,4.81h5.28Z"/>
      <path class="cls-1" d="M90.19,79.71l-2.44-4.44h-7.58l-2.44,4.44h-2.39l7.59-13.83h2.04l.09.16,7.5,13.67h-2.39ZM86.6,73.17l-2.64-4.81-2.64,4.81h5.28Z"/>
      <polygon class="cls-1" points="57.7 88.18 55.76 86.24 54.2 87.81 52.64 86.24 50.7 88.18 52.64 90.12 54.2 88.55 55.76 90.12 57.7 88.18"/>
      <polygon class="cls-1" points="11.34 88.18 9.4 90.12 7.47 88.18 9.4 86.24 11.34 88.18"/>
      <path class="cls-1" d="M99.35,88.98c-2.63,0-3.36,2.06-4.03,3.97-.1.29-.19.59-.28.87-.35,1.11-.68,2.16-1.15,2.16h-31.42s0-6.43,0-6.43h-2.17v6.43H23.63s0-11.65,0-11.65h-2.16v12.21l1.63,1.56h70.71c.62,0,1.29-.41,1.64-.98l5.84.99,1.79-1.49.02-.09c.17-.65.25-1.32.25-2.05,0-3.11-1.72-5.47-4-5.5M101.27,95.8l-4.62-.93c.86-3.5,2.09-3.89,2.59-3.89.45,0,.91.28,1.3.8.64.85,1.09,2.4.73,4.02"/>
      <rect class="cls-1" x="105.54" y="84.32" width="2.18" height="13.77"/>
      <path class="cls-1" d="M107.71,103.18v-2.14h1.82c.93,0,1.28-.36,1.28-1.31v-10.85h2.11v10.85c0,2.13-1.3,3.45-3.39,3.45h-1.82Z"/>
      <path class="cls-1" d="M18.8,88.88v7.64l-1.6,1.58H3.3c-1.92,0-2.69-1.13-2.97-1.82-.23-.53-.34-1.11-.33-1.75v-3.47h2.13v3.47c0,.61.21,1.03.63,1.26.19.11.4.17.65.19h13.24v-7.09h2.15Z"/>
      <rect class="cls-1" x="61.11" width="4.86" height="8.32"/>
      <polygon class="cls-1" points="46.95 0 55.23 8.32 58.67 4.87 53.83 0 46.95 0"/>
      <polygon class="cls-1" points="51.86 11.72 55.25 8.32 63.54 16.64 56.76 16.64 51.86 11.72"/>
      <polygon class="cls-1" points="73.85 17.48 79.71 11.6 83.15 15.05 77.29 20.93 73.85 17.48"/>
      <polygon class="cls-1" points="69.7 1.55 74.56 6.43 74.56 13.31 69.7 13.31 69.7 1.55"/>
      <polygon class="cls-1" points="64.91 13.32 69.71 13.32 69.71 25.09 64.91 20.28 64.91 13.32"/>
      <rect class="cls-1" x="76.41" y="33" width="8.28" height="4.88"/>
      <polygon class="cls-1" points="84.69 18.79 84.69 25.69 79.84 30.56 76.41 27.1 84.69 18.79"/>
      <polygon class="cls-1" points="73.01 23.71 76.41 27.12 68.11 35.44 68.11 28.63 73.01 23.71"/>
      <polygon class="cls-1" points="67.28 45.79 73.13 51.67 69.7 55.12 63.84 49.24 67.28 45.79"/>
      <polygon class="cls-1" points="83.15 41.62 78.28 46.5 71.43 46.5 71.43 41.62 83.15 41.62"/>
      <polygon class="cls-1" points="71.42 36.82 71.42 41.63 59.69 41.63 64.49 36.82 71.42 36.82"/>
      <rect class="cls-1" x="46.95" y="48.36" width="4.86" height="8.32"/>
      <polygon class="cls-1" points="65.97 56.67 59.1 56.67 54.25 51.81 57.69 48.36 65.97 56.67"/>
      <polygon class="cls-1" points="61.06 44.95 57.67 48.36 49.38 40.03 56.17 40.03 61.06 44.95"/>
      <polygon class="cls-1" points="39.07 39.19 33.21 45.07 29.77 41.62 35.63 35.74 39.07 39.19"/>
      <polygon class="cls-1" points="43.22 55.12 38.36 50.24 38.36 43.36 43.22 43.36 43.22 55.12"/>
      <polygon class="cls-1" points="48.01 43.35 43.21 43.35 43.21 31.58 48.01 36.4 48.01 43.35"/>
      <rect class="cls-1" x="28.23" y="18.79" width="8.28" height="4.88"/>
      <polygon class="cls-1" points="28.23 37.88 28.23 30.98 33.08 26.12 36.52 29.57 28.23 37.88"/>
      <polygon class="cls-1" points="39.91 29.7 36.52 27.24 44.81 21.23 44.81 26.15 39.91 29.7"/>
      <polygon class="cls-1" points="45.65 10.88 39.79 5 43.23 1.55 49.08 7.43 45.65 10.88"/>
      <polygon class="cls-1" points="29.77 15.05 34.64 10.17 41.49 10.17 41.49 15.05 29.77 15.05"/>
      <polygon class="cls-1" points="41.5 19.86 41.5 15.04 53.23 15.04 48.43 19.86 41.5 19.86"/>
    </g>
  </g>
</svg>