<svg width="113" height="104" viewBox="0 0 113 104" fill="none" xmlns="http://www.w3.org/2000/svg">
<g clip-path="url(#clip0_8_6)">
<path d="M13.89 79.7099L10.59 76.0399H2.09V79.7099H0V65.8799H11.35C14.14 65.8799 16.41 68.1599 16.41 70.9599C16.41 73.0599 15.11 74.9399 13.19 75.6899L16.8 79.7099H13.89ZM11.36 73.9399C13 73.9399 14.33 72.5999 14.33 70.9599C14.33 69.3199 13 67.9799 11.36 67.9799H2.09V73.9399H11.35H11.36Z" fill="#041789"/>
<path d="M55.4299 79.7099V67.1799L48.3499 74.2799L41.1899 67.0899V79.7099H39.0999V65.8799H42.9399L48.3499 71.3099L53.7599 65.8799H57.5199V79.7099H55.4299Z" fill="#041789"/>
<path d="M67.0699 79.7099V67.9799H59.9399V65.8799H76.2999V67.9799H69.1699V79.7099H67.0699Z" fill="#041789"/>
<path d="M110.83 65.8799V78.1499L98.5999 65.8799H95.1099V79.7099H97.1999V67.4399L109.43 79.7099H112.92V65.8799H110.83Z" fill="#041789"/>
<path d="M34.1798 79.7099L31.7398 75.2699H24.1598L21.7198 79.7099H19.3298L26.9198 65.8799H28.9598L29.0498 66.0399L36.5498 79.7099H34.1598H34.1798ZM30.5898 73.1699L27.9498 68.3599L25.3098 73.1699H30.5898Z" fill="#041789"/>
<path d="M90.1898 79.7099L87.7498 75.2699H80.1698L77.7299 79.7099H75.3398L82.9298 65.8799H84.9698L85.0598 66.0399L92.5598 79.7099H90.1698H90.1898ZM86.5998 73.1699L83.9598 68.3599L81.3198 73.1699H86.5998Z" fill="#041789"/>
<path d="M57.7 88.18L55.7599 86.24L54.2 87.81L52.6399 86.24L50.7 88.18L52.6399 90.12L54.2 88.55L55.7599 90.12L57.7 88.18Z" fill="#041789"/>
<path d="M11.34 88.18L9.39997 90.12L7.46997 88.18L9.39997 86.24L11.34 88.18Z" fill="#041789"/>
<path d="M99.35 88.9801C96.72 88.9801 95.99 91.0401 95.32 92.9501C95.22 93.2401 95.13 93.5401 95.04 93.8201C94.69 94.9301 94.36 95.9801 93.89 95.9801H62.47V89.5501H60.3V95.9801H23.63V84.3301H21.47V96.5401L23.1 98.1001H93.81C94.43 98.1001 95.1 97.6901 95.45 97.1201L101.29 98.1101L103.08 96.6201L103.1 96.5301C103.27 95.8801 103.35 95.2101 103.35 94.4801C103.35 91.3701 101.63 89.0101 99.35 88.9801ZM101.27 95.8001L96.65 94.8701C97.51 91.3701 98.74 90.9801 99.24 90.9801C99.69 90.9801 100.15 91.2601 100.54 91.7801C101.18 92.6301 101.63 94.1801 101.27 95.8001Z" fill="#041789"/>
<path d="M107.72 84.3201H105.54V98.0901H107.72V84.3201Z" fill="#041789"/>
<path d="M107.71 103.18V101.04H109.53C110.46 101.04 110.81 100.68 110.81 99.7299V88.8799H112.92V99.7299C112.92 101.86 111.62 103.18 109.53 103.18H107.71Z" fill="#041789"/>
<path d="M18.7999 88.8799V96.5199L17.1999 98.0999H3.29989C1.37989 98.0999 0.609893 96.9699 0.329893 96.2799C0.0998926 95.7499 -0.0101074 95.1699 -0.000107422 94.5299V91.0599H2.12989V94.5299C2.12989 95.1399 2.33989 95.5599 2.75989 95.7899C2.94989 95.8999 3.15989 95.9599 3.40989 95.9799H16.6499V88.8899H18.7999V88.8799Z" fill="#041789"/>
<path d="M65.9699 0H61.1099V8.32H65.9699V0Z" fill="#041789"/>
<path d="M46.95 0L55.2299 8.32L58.6699 4.87L53.83 0H46.95Z" fill="#041789"/>
<path d="M51.8599 11.7201L55.2499 8.32007L63.5399 16.6401H56.7599L51.8599 11.7201Z" fill="#041789"/>
<path d="M73.8499 17.4801L79.7099 11.6001L83.1499 15.0501L77.2899 20.9301L73.8499 17.4801Z" fill="#041789"/>
<path d="M69.7 1.55005L74.56 6.43005V13.31H69.7V1.55005Z" fill="#041789"/>
<path d="M64.9099 13.3201H69.7099V25.0901L64.9099 20.2801V13.3201Z" fill="#041789"/>
<path d="M84.6899 33H76.4099V37.88H84.6899V33Z" fill="#041789"/>
<path d="M84.6899 18.79V25.69L79.8399 30.56L76.4099 27.1L84.6899 18.79Z" fill="#041789"/>
<path d="M73.0099 23.71L76.4099 27.12L68.1099 35.44V28.63L73.0099 23.71Z" fill="#041789"/>
<path d="M67.2798 45.79L73.1298 51.67L69.6998 55.12L63.8398 49.24L67.2798 45.79Z" fill="#041789"/>
<path d="M83.1499 41.6201L78.2799 46.5001H71.4299V41.6201H83.1499Z" fill="#041789"/>
<path d="M71.4199 36.8201V41.6301H59.6899L64.4899 36.8201H71.4199Z" fill="#041789"/>
<path d="M51.81 48.3601H46.95V56.6801H51.81V48.3601Z" fill="#041789"/>
<path d="M65.97 56.6701H59.1L54.25 51.8101L57.69 48.3601L65.97 56.6701Z" fill="#041789"/>
<path d="M61.0599 44.95L57.6699 48.36L49.3799 40.03H56.1699L61.0599 44.95Z" fill="#041789"/>
<path d="M39.0698 39.19L33.2098 45.07L29.7698 41.62L35.6298 35.74L39.0698 39.19Z" fill="#041789"/>
<path d="M43.2199 55.1201L38.3599 50.2401V43.3601H43.2199V55.1201Z" fill="#041789"/>
<path d="M48.01 43.3501H43.21V31.5801L48.01 36.4001V43.3501Z" fill="#041789"/>
<path d="M36.51 18.79H28.23V23.67H36.51V18.79Z" fill="#041789"/>
<path d="M28.23 37.8801V30.9801L33.08 26.1201L36.52 29.5701L28.23 37.8801Z" fill="#041789"/>
<path d="M39.9098 29.7L36.5198 27.24L44.8098 21.23V26.15L39.9098 29.7Z" fill="#041789"/>
<path d="M45.6498 10.88L39.7898 5.00005L43.2298 1.55005L49.0798 7.43005L45.6498 10.88Z" fill="#041789"/>
<path d="M29.7698 15.0499L34.6398 10.1699H41.4898V15.0499H29.7698Z" fill="#041789"/>
<path d="M41.5 19.86V15.04H53.23L48.43 19.86H41.5Z" fill="#041789"/>
</g>
<defs>
<clipPath id="clip0_8_6">
<rect width="112.92" height="103.18" fill="white"/>
</clipPath>
</defs>
</svg>
